<svg width="300" height="60" viewBox="0 0 300 60" fill="none" xmlns="http://www.w3.org/2000/svg">
<path d="M17.9965 15.2441C20.2785 13.3261 22.8332 11.7819 25.5133 10.6993C28.1937 9.61654 30.944 9.01822 33.6049 8.93326C36.099 8.85368 38.4666 9.22673 40.5918 10.026L41.0143 10.1913L41.4429 10.3745C43.1339 11.1262 44.0586 12.568 44.2577 14.1818C44.4581 15.8063 43.9204 17.6112 42.6513 19.03C39.7868 22.2319 35.331 26.0856 29.1663 28.3106C23.4169 30.3857 19.1182 33.8266 16.176 36.8921L15.6061 37.5C14.5273 38.6749 12.9916 39.2905 11.6747 39.2366C11.0213 39.2098 10.4394 39.0198 9.98765 38.6734C9.54088 38.3308 9.1919 37.8132 9.03196 37.0733C8.52177 34.7128 8.53623 32.1555 9.08176 29.5456C9.62733 26.9355 10.6925 24.3267 12.2223 21.8706C13.7522 19.4146 15.7144 17.1622 17.9965 15.2441Z" fill="#CFAA2A" stroke="#CFAA2A"/>
<path d="M42.0739 43.9879C37.4619 47.8643 31.8424 50.127 26.4655 50.2987C24.1542 50.3724 21.9721 50.0571 19.9999 49.3917C17.9369 48.6955 16.904 47.0658 16.7666 45.1988C16.6277 43.3104 17.4116 41.1772 19.0301 39.5929C22.3211 36.3714 26.568 32.778 30.5369 31.0744L30.9199 30.9158C34.1124 29.6392 37.4429 27.175 40.3334 24.6326C42.593 22.6451 45.5106 21.7933 47.7698 22.1544C48.8924 22.3338 49.8287 22.8074 50.4623 23.5589C51.0919 24.3059 51.465 25.3776 51.3756 26.8391C51.3185 27.773 51.1898 28.7243 50.9887 29.6864C49.8862 34.9608 46.686 40.1113 42.0739 43.9879Z" fill="#CFAA2A" stroke="#CFAA2A"/>
<path d="M77.9789 15.2418C80.2606 13.3235 82.815 11.7791 85.4948 10.6963C88.1748 9.61337 90.9249 9.0149 93.5854 8.92988C96.0792 8.85023 98.4464 9.22327 100.571 10.0226L100.994 10.1879L101.422 10.3711C103.113 11.1229 104.038 12.5648 104.237 14.1788C104.437 15.8035 103.899 17.6087 102.63 19.0277C99.7663 22.23 95.3109 26.0843 89.1469 28.3097C83.3982 30.3853 79.1 33.8267 76.1581 36.8927L75.5883 37.5006C74.5095 38.6757 72.974 39.2914 71.6573 39.2375C71.004 39.2108 70.4222 39.0208 69.9705 38.6743C69.5238 38.3316 69.1749 37.814 69.015 37.074C68.5049 34.7133 68.5194 32.1556 69.0649 29.5453C69.6105 26.9349 70.6755 24.3258 72.2052 21.8694C73.7349 19.413 75.697 17.1603 77.9789 15.2418Z" fill="#CFAA2A" stroke="#CFAA2A"/>
<path d="M102.053 43.9888C97.441 47.8658 91.8222 50.1289 86.446 50.3007C84.135 50.3745 81.9532 50.0593 79.9812 49.3937C77.9185 48.6975 76.8857 47.0677 76.7484 45.2004C76.6096 43.3117 77.3935 41.1783 79.0118 39.5938C82.3024 36.3717 86.5489 32.7778 90.5173 31.074L90.9002 30.9153C94.0923 29.6385 97.4225 27.1739 100.313 24.6311C102.572 22.6432 105.489 21.7913 107.748 22.1524C108.871 22.3318 109.807 22.8054 110.44 23.557C111.07 24.3041 111.443 25.3759 111.353 26.8376C111.296 27.7716 111.168 28.7231 110.966 29.6853C109.864 34.9604 106.664 40.1116 102.053 43.9888Z" fill="#CFAA2A" stroke="#CFAA2A"/>
<path d="M137.963 15.2418C140.245 13.3235 142.799 11.7791 145.479 10.6963C148.159 9.61337 150.909 9.0149 153.57 8.92988C156.063 8.85023 158.431 9.22327 160.556 10.0226L160.978 10.1879L161.407 10.3711C163.097 11.1229 164.022 12.5648 164.221 14.1788C164.421 15.8035 163.884 17.6087 162.615 19.0277C159.751 22.23 155.295 26.0843 149.131 28.3097C143.382 30.3853 139.084 33.8267 136.142 36.8927L135.573 37.5006C134.494 38.6757 132.958 39.2914 131.642 39.2375C130.988 39.2108 130.406 39.0208 129.955 38.6743C129.508 38.3316 129.159 37.814 128.999 37.074C128.489 34.7133 128.504 32.1556 129.049 29.5453C129.595 26.9349 130.66 24.3258 132.19 21.8694C133.719 19.413 135.681 17.1603 137.963 15.2418Z" fill="#CFAA2A" stroke="#CFAA2A"/>
<path d="M162.037 43.9888C157.425 47.8658 151.807 50.1289 146.43 50.3007C144.119 50.3745 141.937 50.0593 139.965 49.3937C137.903 48.6975 136.87 47.0677 136.733 45.2004C136.594 43.3117 137.378 41.1783 138.996 39.5938C142.287 36.3717 146.533 32.7778 150.502 31.074L150.885 30.9153C154.077 29.6385 157.407 27.1739 160.297 24.6311C162.556 22.6432 165.474 21.7913 167.733 22.1524C168.855 22.3318 169.791 22.8054 170.425 23.557C171.054 24.3041 171.427 25.3759 171.338 26.8376C171.281 27.7716 171.152 28.7231 170.951 29.6853C169.848 34.9604 166.648 40.1116 162.037 43.9888Z" fill="#CFAA2A" stroke="#CFAA2A"/>
<path d="M197.947 15.2418C200.229 13.3235 202.784 11.7791 205.463 10.6963C208.143 9.61337 210.893 9.0149 213.554 8.92988C216.048 8.85023 218.415 9.22327 220.54 10.0226L220.962 10.1879L221.391 10.3711C223.082 11.1229 224.006 12.5648 224.205 14.1788C224.406 15.8035 223.868 17.6087 222.599 19.0277C219.735 22.23 215.279 26.0843 209.115 28.3097C203.367 30.3853 199.069 33.8267 196.127 36.8927L195.557 37.5006C194.478 38.6757 192.943 39.2914 191.626 39.2375C190.973 39.2108 190.391 39.0208 189.939 38.6743C189.492 38.3316 189.143 37.814 188.984 37.074C188.473 34.7133 188.488 32.1556 189.034 29.5453C189.579 26.9349 190.644 24.3258 192.174 21.8694C193.704 19.413 195.666 17.1603 197.947 15.2418Z" fill="#CFAA2A" stroke="#CFAA2A"/>
<path d="M222.021 43.9888C217.41 47.8658 211.791 50.1289 206.415 50.3007C204.104 50.3745 201.922 50.0593 199.95 49.3937C197.887 48.6975 196.854 47.0677 196.717 45.2004C196.578 43.3117 197.362 41.1783 198.98 39.5938C202.271 36.3717 206.517 32.7778 210.486 31.074L210.869 30.9153C214.061 29.6385 217.391 27.1739 220.281 24.6311C222.541 22.6432 225.458 21.7913 227.717 22.1524C228.839 22.3318 229.775 22.8054 230.409 23.557C231.038 24.3041 231.411 25.3759 231.322 26.8376C231.265 27.7716 231.136 28.7231 230.935 29.6853C229.833 34.9604 226.633 40.1116 222.021 43.9888Z" fill="#CFAA2A" fill-opacity="0.1" stroke="#CFAA2A"/>
<path d="M257.932 15.2418C260.213 13.3235 262.768 11.7791 265.448 10.6963C268.128 9.61337 270.878 9.0149 273.538 8.92988C276.032 8.85023 278.399 9.22327 280.524 10.0226L280.947 10.1879L281.375 10.3711C283.066 11.1229 283.991 12.5648 284.19 14.1788C284.39 15.8035 283.852 17.6087 282.583 19.0277C279.719 22.23 275.264 26.0843 269.1 28.3097C263.351 30.3853 259.053 33.8267 256.111 36.8927L255.541 37.5006C254.462 38.6757 252.927 39.2914 251.61 39.2375C250.957 39.2108 250.375 39.0208 249.923 38.6743C249.477 38.3316 249.128 37.814 248.968 37.074C248.458 34.7133 248.472 32.1556 249.018 29.5453C249.563 26.9349 250.628 24.3258 252.158 21.8694C253.688 19.413 255.65 17.1603 257.932 15.2418Z" fill="#CFAA2A" fill-opacity="0.1" stroke="#CFAA2A"/>
<path d="M282.005 43.9888C277.394 47.8658 271.775 50.1289 266.399 50.3007C264.088 50.3745 261.906 50.0593 259.934 49.3937C257.871 48.6975 256.839 47.0677 256.701 45.2004C256.562 43.3117 257.346 41.1783 258.965 39.5938C262.255 36.3717 266.502 32.7778 270.47 31.074L270.853 30.9153C274.045 29.6385 277.375 27.1739 280.266 24.6311C282.525 22.6432 285.442 21.7913 287.701 22.1524C288.824 22.3318 289.76 22.8054 290.393 23.557C291.023 24.3041 291.396 25.3759 291.306 26.8376C291.249 27.7716 291.12 28.7231 290.919 29.6853C289.817 34.9604 286.617 40.1116 282.005 43.9888Z" fill="#CFAA2A" fill-opacity="0.1" stroke="#CFAA2A"/>
</svg>
