<svg width="300" height="60" viewBox="0 0 300 60" fill="none" xmlns="http://www.w3.org/2000/svg">
<path d="M17.9959 15.3961C20.2777 13.4847 22.8321 11.9456 25.5119 10.8667C28.1921 9.78765 30.9422 9.19138 33.6028 9.10673C36.0969 9.02739 38.4647 9.39858 40.5898 10.1952L41.0117 10.3603C41.1515 10.4173 41.2899 10.4766 41.4271 10.5372C43.1222 11.2863 44.0491 12.7255 44.249 14.3365C44.4503 15.9583 43.9123 17.7599 42.6408 19.1758C39.7763 22.3652 35.3233 26.2016 29.1641 28.4171C23.0301 30.6237 18.548 34.3804 15.6023 37.5783C14.5243 38.7486 12.9897 39.3617 11.6736 39.3076C11.0206 39.2807 10.4385 39.0912 9.98707 38.7459C9.54065 38.4044 9.1918 37.8883 9.0319 37.151C8.52177 34.7987 8.53649 32.2498 9.08195 29.6488C9.62746 27.0477 10.6925 24.4477 12.2222 22C13.7519 19.5523 15.7141 17.3078 17.9959 15.3961Z" fill="#CFAA2A" stroke="#CFAA2A"/>
<path d="M42.0712 44.0418C37.6036 47.7844 32.191 50.0181 26.9691 50.3096L26.4643 50.3312C24.3033 50.3999 22.2551 50.1304 20.386 49.5528L20.0149 49.4331C17.9474 48.7401 16.9112 47.1129 16.7729 45.2493C16.633 43.3646 17.4182 41.2362 19.0389 39.6552C22.3287 36.4466 26.5714 32.8697 30.5365 31.1737L30.9187 31.0152C34.1066 29.7448 37.4322 27.294 40.3196 24.764C42.5827 22.7811 45.5043 21.9329 47.7657 22.2945C48.8893 22.4742 49.8253 22.947 50.4588 23.6972C51.0884 24.443 51.4615 25.513 51.3704 26.972C51.327 27.665 51.2445 28.3678 51.1217 29.0773L50.9852 29.7891C49.8828 35.0456 46.6828 40.1784 42.0712 44.0418Z" fill="#CFAA2A" stroke="#CFAA2A"/>
<path d="M78.0032 15.1922C80.2845 13.2803 82.8385 11.741 85.518 10.6617C88.1977 9.58243 90.9473 8.98596 93.6074 8.90122C96.1011 8.82179 98.4685 9.19297 100.593 9.98969L101.015 10.1548C101.155 10.2117 101.293 10.2711 101.43 10.3317C103.125 11.0808 104.052 12.5203 104.252 14.1316C104.453 15.7537 103.915 17.5556 102.643 18.9718C99.7794 22.1619 95.327 25.9991 89.169 28.2152C83.0359 30.4224 78.5545 34.1799 75.6092 37.3785C74.5314 38.549 72.9971 39.1623 71.6812 39.1082C71.0283 39.0813 70.4464 38.8917 69.995 38.5464C69.5487 38.2049 69.1999 37.6887 69.04 36.9513C68.5301 34.5986 68.5449 32.0493 69.0903 29.4478C69.6358 26.8461 70.7007 24.2457 72.2302 21.7975C73.7597 19.3493 75.7216 17.1043 78.0032 15.1922Z" fill="#CFAA2A" fill-opacity="0.1" stroke="#CFAA2A"/>
<path d="M102.073 43.8423C97.4621 47.7065 91.8444 49.962 86.4689 50.1333C84.1643 50.2067 81.9882 49.8949 80.0207 49.2352C77.9535 48.5421 76.9176 46.9147 76.7794 45.0508C76.6396 43.1656 77.4252 41.0363 79.0459 39.455C82.4412 36.1423 86.8509 32.4373 90.9231 30.8137C94.1105 29.5429 97.4356 27.0916 100.323 24.5611C102.585 22.5778 105.506 21.7292 107.767 22.0909C108.891 22.2706 109.827 22.7435 110.46 23.4937C111.089 24.2397 111.462 25.3098 111.371 26.7691C111.313 27.6933 111.186 28.6349 110.986 29.5867C109.884 34.8442 106.684 39.978 102.073 43.8423Z" fill="#CFAA2A" fill-opacity="0.1" stroke="#CFAA2A"/>
<path d="M137.981 15.1922C140.262 13.2803 142.816 11.741 145.496 10.6617C148.176 9.58243 150.925 8.98596 153.585 8.90122C156.079 8.82179 158.446 9.19297 160.571 9.98969L160.993 10.1548C161.133 10.2117 161.271 10.2711 161.408 10.3317C163.103 11.0808 164.03 12.5203 164.229 14.1316C164.431 15.7537 163.893 17.5556 162.621 18.9718C159.757 22.1619 155.305 25.9991 149.147 28.2152C143.014 30.4224 138.532 34.1799 135.587 37.3785C134.509 38.549 132.975 39.1623 131.659 39.1082C131.006 39.0813 130.424 38.8917 129.973 38.5464C129.527 38.2049 129.178 37.6887 129.018 36.9513C128.508 34.5986 128.523 32.0493 129.068 29.4478C129.614 26.8461 130.679 24.2457 132.208 21.7975C133.738 19.3493 135.7 17.1043 137.981 15.1922Z" fill="#CFAA2A" fill-opacity="0.1" stroke="#CFAA2A"/>
<path d="M162.051 43.8423C157.44 47.7065 151.822 49.962 146.447 50.1333C144.142 50.2067 141.966 49.8949 139.999 49.2352C137.931 48.5421 136.896 46.9147 136.757 45.0508C136.617 43.1656 137.403 41.0363 139.024 39.455C142.419 36.1423 146.829 32.4373 150.901 30.8137C154.088 29.5429 157.413 27.0916 160.3 24.5611C162.563 22.5778 165.484 21.7292 167.745 22.0909C168.869 22.2706 169.804 22.7435 170.438 23.4937C171.067 24.2397 171.44 25.3098 171.349 26.7691C171.291 27.6933 171.163 28.6349 170.964 29.5867C169.862 34.8442 166.662 39.978 162.051 43.8423Z" fill="#CFAA2A" fill-opacity="0.1" stroke="#CFAA2A"/>
<path d="M197.959 15.1922C200.24 13.2803 202.794 11.741 205.474 10.6617C208.153 9.58243 210.903 8.98596 213.563 8.90122C216.057 8.82179 218.424 9.19297 220.549 9.98969L220.971 10.1548C221.11 10.2117 221.249 10.2711 221.386 10.3317C223.081 11.0808 224.007 12.5203 224.207 14.1316C224.409 15.7537 223.871 17.5556 222.599 18.9718C219.735 22.1619 215.283 25.9991 209.125 28.2152C202.992 30.4224 198.51 34.1799 195.565 37.3785C194.487 38.549 192.953 39.1623 191.637 39.1082C190.984 39.0813 190.402 38.8917 189.951 38.5464C189.504 38.2049 189.156 37.6887 188.996 36.9513C188.486 34.5986 188.501 32.0493 189.046 29.4478C189.592 26.8461 190.656 24.2457 192.186 21.7975C193.715 19.3493 195.677 17.1043 197.959 15.1922Z" fill="#CFAA2A" fill-opacity="0.1" stroke="#CFAA2A"/>
<path d="M222.029 43.8423C217.418 47.7065 211.8 49.962 206.425 50.1333C204.12 50.2067 201.944 49.8949 199.976 49.2352C197.909 48.5421 196.873 46.9147 196.735 45.0508C196.595 43.1656 197.381 41.0363 199.002 39.455C202.397 36.1423 206.807 32.4373 210.879 30.8137C214.066 29.5429 217.391 27.0916 220.278 24.5611C222.541 22.5778 225.462 21.7292 227.723 22.0909C228.846 22.2706 229.782 22.7435 230.416 23.4937C231.045 24.2397 231.418 25.3098 231.327 26.7691C231.269 27.6933 231.141 28.6349 230.942 29.5867C229.839 34.8442 226.64 39.978 222.029 43.8423Z" fill="#CFAA2A" fill-opacity="0.1" stroke="#CFAA2A"/>
<path d="M257.937 15.1922C260.218 13.2803 262.772 11.741 265.452 10.6617C268.131 9.58243 270.881 8.98596 273.541 8.90122C276.035 8.82179 278.402 9.19297 280.527 9.98969L280.949 10.1548C281.088 10.2117 281.227 10.2711 281.364 10.3317C283.059 11.0808 283.985 12.5203 284.185 14.1316C284.386 15.7537 283.849 17.5556 282.577 18.9718C279.713 22.1619 275.261 25.9991 269.103 28.2152C262.97 30.4224 258.488 34.1799 255.543 37.3785C254.465 38.549 252.931 39.1623 251.615 39.1082C250.962 39.0813 250.38 38.8917 249.929 38.5464C249.482 38.2049 249.134 37.6887 248.974 36.9513C248.464 34.5986 248.479 32.0493 249.024 29.4478C249.569 26.8461 250.634 24.2457 252.164 21.7975C253.693 19.3493 255.655 17.1043 257.937 15.1922Z" fill="#CFAA2A" fill-opacity="0.1" stroke="#CFAA2A"/>
<path d="M282.007 43.8423C277.396 47.7065 271.778 49.962 266.403 50.1333C264.098 50.2067 261.922 49.8949 259.954 49.2352C257.887 48.5421 256.851 46.9147 256.713 45.0508C256.573 43.1656 257.359 41.0363 258.98 39.455C262.375 36.1423 266.785 32.4373 270.857 30.8137C274.044 29.5429 277.369 27.0916 280.256 24.5611C282.519 22.5778 285.44 21.7292 287.701 22.0909C288.824 22.2706 289.76 22.7435 290.394 23.4937C291.023 24.2397 291.396 25.3098 291.305 26.7691C291.247 27.6933 291.119 28.6349 290.92 29.5867C289.817 34.8442 286.618 39.978 282.007 43.8423Z" fill="#CFAA2A" fill-opacity="0.1" stroke="#CFAA2A"/>
</svg>
