<svg width="300" height="60" viewBox="0 0 300 60" fill="none" xmlns="http://www.w3.org/2000/svg">
<path d="M17.9965 15.2442C20.2785 13.3262 22.8332 11.782 25.5133 10.6994C28.1937 9.61667 30.944 9.01834 33.6049 8.93339C36.099 8.8538 38.4666 9.22685 40.5918 10.0261L41.0143 10.1914C41.1584 10.2504 41.3016 10.3118 41.4429 10.3746C43.1339 11.1263 44.0586 12.5681 44.2577 14.1819C44.4581 15.8064 43.9204 17.6114 42.6513 19.0301C39.8763 22.132 35.6079 25.8453 29.739 28.0972L29.1663 28.3107C23.4169 30.3859 19.1182 33.8267 16.176 36.8923L15.6061 37.5001C14.5273 38.675 12.9916 39.2906 11.6747 39.2367C11.0213 39.2099 10.4394 39.02 9.98765 38.6735C9.54088 38.3309 9.1919 37.8133 9.03196 37.0734C8.52177 34.713 8.53623 32.1556 9.08176 29.5457C9.62733 26.9356 10.6925 24.3268 12.2223 21.8708C13.7522 19.4147 15.7144 17.1623 17.9965 15.2442Z" fill="#CFAA2A" fill-opacity="0.1" stroke="#CFAA2A"/>
<path d="M42.0739 43.9881C37.606 47.7433 32.1932 49.9846 26.9709 50.2772L26.4655 50.2989C24.1542 50.3726 21.9721 50.0573 19.9999 49.3919C17.9369 48.6957 16.904 47.066 16.7666 45.199C16.6277 43.3105 17.4116 41.1774 19.0301 39.5931C22.4272 36.2677 26.8429 32.5462 30.9199 30.916C34.1123 29.6394 37.4429 27.1752 40.3334 24.6328C42.593 22.6453 45.5106 21.7935 47.7698 22.1546C48.8924 22.334 49.8287 22.8076 50.4623 23.5591C51.0919 24.306 51.465 25.3778 51.3756 26.8393C51.3327 27.5398 51.25 28.2501 51.1264 28.9674L50.9886 29.6866C49.8862 34.961 46.686 40.1115 42.0739 43.9881Z" fill="#CFAA2A" fill-opacity="0.1" stroke="#CFAA2A"/>
<path d="M77.9789 15.2419C80.2606 13.3237 82.815 11.7792 85.4948 10.6964C88.1748 9.61349 90.9249 9.01503 93.5854 8.93C96.0792 8.85035 98.4464 9.2234 100.571 10.0227L100.994 10.188L101.422 10.3712C103.113 11.123 104.038 12.565 104.237 14.1789C104.437 15.8036 103.899 17.6089 102.63 19.0278C99.7663 22.2301 95.3109 26.0844 89.1469 28.3099C83.3982 30.3854 79.1 33.8268 76.1581 36.8928L75.5883 37.5007C74.5095 38.6758 72.974 39.2915 71.6573 39.2376C71.004 39.2109 70.4222 39.0209 69.9705 38.6744C69.5238 38.3318 69.1749 37.8141 69.015 37.0741C68.5049 34.7134 68.5194 32.1557 69.0649 29.5455C69.6105 26.935 70.6755 24.3259 72.2052 21.8695C73.7349 19.4131 75.697 17.1604 77.9789 15.2419Z" fill="#CFAA2A" fill-opacity="0.1" stroke="#CFAA2A"/>
<path d="M102.053 43.9889C97.441 47.866 91.8222 50.129 86.446 50.3008C84.135 50.3746 81.9532 50.0594 79.9812 49.3939C77.9185 48.6976 76.8857 47.0678 76.7484 45.2006C76.6096 43.3119 77.3935 41.1784 79.0117 39.5939C82.3024 36.3719 86.5489 32.7779 90.5172 31.0741L90.9002 30.9154C94.0923 29.6386 97.4225 27.174 100.313 24.6312C102.572 22.6434 105.489 21.7914 107.748 22.1525C108.871 22.3319 109.807 22.8055 110.44 23.5571C111.07 24.3042 111.443 25.3761 111.353 26.8377C111.296 27.7718 111.168 28.7232 110.966 29.6854C109.864 34.9605 106.664 40.1117 102.053 43.9889Z" fill="#CFAA2A" fill-opacity="0.1" stroke="#CFAA2A"/>
<path d="M137.963 15.2419C140.245 13.3237 142.799 11.7792 145.479 10.6964C148.159 9.61349 150.909 9.01503 153.57 8.93C156.063 8.85035 158.431 9.2234 160.556 10.0227L160.978 10.188L161.407 10.3712C163.097 11.123 164.022 12.565 164.221 14.1789C164.421 15.8036 163.884 17.6089 162.615 19.0278C159.751 22.2301 155.295 26.0844 149.131 28.3099C143.382 30.3854 139.084 33.8268 136.142 36.8928L135.573 37.5007C134.494 38.6758 132.958 39.2915 131.642 39.2376C130.988 39.2109 130.406 39.0209 129.955 38.6744C129.508 38.3318 129.159 37.8141 128.999 37.0741C128.489 34.7134 128.504 32.1557 129.049 29.5455C129.595 26.935 130.66 24.3259 132.19 21.8695C133.719 19.4131 135.681 17.1604 137.963 15.2419Z" fill="#CFAA2A" fill-opacity="0.1" stroke="#CFAA2A"/>
<path d="M162.037 43.9889C157.425 47.866 151.807 50.129 146.43 50.3008C144.119 50.3746 141.937 50.0594 139.965 49.3939C137.903 48.6976 136.87 47.0678 136.733 45.2006C136.594 43.3119 137.378 41.1784 138.996 39.5939C142.287 36.3719 146.533 32.7779 150.502 31.0741L150.885 30.9154C154.077 29.6386 157.407 27.174 160.297 24.6312C162.556 22.6434 165.474 21.7914 167.733 22.1525C168.855 22.3319 169.791 22.8055 170.425 23.5571C171.054 24.3042 171.427 25.3761 171.338 26.8377C171.281 27.7718 171.152 28.7232 170.951 29.6854C169.848 34.9605 166.648 40.1117 162.037 43.9889Z" fill="#CFAA2A" fill-opacity="0.1" stroke="#CFAA2A"/>
<path d="M197.947 15.2419C200.229 13.3237 202.784 11.7792 205.463 10.6964C208.143 9.61349 210.893 9.01503 213.554 8.93C216.048 8.85035 218.415 9.2234 220.54 10.0227L220.962 10.188L221.391 10.3712C223.082 11.123 224.006 12.565 224.205 14.1789C224.406 15.8036 223.868 17.6089 222.599 19.0278C219.735 22.2301 215.279 26.0844 209.115 28.3099C203.367 30.3854 199.069 33.8268 196.127 36.8928L195.557 37.5007C194.478 38.6758 192.943 39.2915 191.626 39.2376C190.973 39.2109 190.391 39.0209 189.939 38.6744C189.492 38.3318 189.143 37.8141 188.984 37.0741C188.473 34.7134 188.488 32.1557 189.034 29.5455C189.579 26.935 190.644 24.3259 192.174 21.8695C193.704 19.4131 195.666 17.1604 197.947 15.2419Z" fill="#CFAA2A" fill-opacity="0.1" stroke="#CFAA2A"/>
<path d="M222.021 43.9889C217.41 47.866 211.791 50.129 206.415 50.3008C204.104 50.3746 201.922 50.0594 199.95 49.3939C197.887 48.6976 196.854 47.0678 196.717 45.2006C196.578 43.3119 197.362 41.1784 198.98 39.5939C202.271 36.3719 206.517 32.7779 210.486 31.0741L210.869 30.9154C214.061 29.6386 217.391 27.174 220.281 24.6312C222.541 22.6434 225.458 21.7914 227.717 22.1525C228.839 22.3319 229.775 22.8055 230.409 23.5571C231.038 24.3042 231.411 25.3761 231.322 26.8377C231.265 27.7718 231.136 28.7232 230.935 29.6854C229.833 34.9605 226.633 40.1117 222.021 43.9889Z" fill="#CFAA2A" fill-opacity="0.1" stroke="#CFAA2A"/>
<path d="M257.932 15.2419C260.213 13.3237 262.768 11.7792 265.448 10.6964C268.128 9.61349 270.878 9.01503 273.538 8.93C276.032 8.85035 278.399 9.2234 280.524 10.0227L280.947 10.188L281.375 10.3712C283.066 11.123 283.991 12.565 284.19 14.1789C284.39 15.8036 283.852 17.6089 282.583 19.0278C279.719 22.2301 275.264 26.0844 269.1 28.3099C263.351 30.3854 259.053 33.8268 256.111 36.8928L255.541 37.5007C254.462 38.6758 252.927 39.2915 251.61 39.2376C250.957 39.2109 250.375 39.0209 249.923 38.6744C249.477 38.3318 249.128 37.8141 248.968 37.0741C248.458 34.7134 248.472 32.1557 249.018 29.5455C249.563 26.935 250.628 24.3259 252.158 21.8695C253.688 19.4131 255.65 17.1604 257.932 15.2419Z" fill="#CFAA2A" fill-opacity="0.1" stroke="#CFAA2A"/>
<path d="M282.005 43.9889C277.394 47.866 271.775 50.129 266.399 50.3008C264.088 50.3746 261.906 50.0594 259.934 49.3939C257.871 48.6976 256.839 47.0678 256.701 45.2006C256.562 43.3119 257.346 41.1784 258.965 39.5939C262.255 36.3719 266.502 32.7779 270.47 31.0741L270.853 30.9154C274.045 29.6386 277.375 27.174 280.266 24.6312C282.525 22.6434 285.442 21.7914 287.701 22.1525C288.824 22.3319 289.76 22.8055 290.393 23.5571C291.023 24.3042 291.396 25.3761 291.306 26.8377C291.249 27.7718 291.12 28.7232 290.919 29.6854C289.817 34.9605 286.617 40.1117 282.005 43.9889Z" fill="#CFAA2A" fill-opacity="0.1" stroke="#CFAA2A"/>
</svg>
